<svg version="1.1" id="Layer_1" xmlns="http://www.w3.org/2000/svg" xmlns:xlink="http://www.w3.org/1999/xlink" x="0px" y="0px"
	 width="100%" viewBox="0 0 1254 1254" enable-background="new 0 0 1254 1254" xml:space="preserve">
<path fill="#000000" opacity="1.000000" stroke="none" 
	d="
M582.000000,1255.000000 
	C388.000000,1255.000000 194.500000,1255.000000 1.000000,1255.000000 
	C1.000000,837.000000 1.000000,419.000000 1.000000,1.000000 
	C419.000000,1.000000 837.000000,1.000000 1255.000000,1.000000 
	C1255.000000,419.000000 1255.000000,837.000000 1255.000000,1255.000000 
	C1030.833374,1255.000000 806.666687,1255.000000 582.000000,1255.000000 
M698.701416,529.207397 
	C720.569763,506.785156 742.396667,484.322083 764.396790,462.029968 
	C765.908020,460.498718 768.708313,459.526215 770.918701,459.508789 
	C793.081238,459.334015 815.245728,459.408630 837.409668,459.435669 
	C838.694092,459.437256 839.978210,459.635345 841.730103,459.780823 
	C841.730103,462.857758 841.729919,465.661926 841.730164,468.466125 
	C841.736572,558.622559 841.762207,648.778992 841.633423,738.935242 
	C841.630371,741.083252 840.414551,743.724915 838.896545,745.299622 
	C821.549988,763.294617 803.825745,780.930298 786.695007,799.125732 
	C781.723083,804.406677 776.866516,806.809998 769.517822,806.405884 
	C757.269775,805.732361 744.957764,806.222168 732.150024,806.222168 
	C732.150024,724.411316 732.150024,643.059509 732.150024,560.843994 
	C730.941223,561.835083 730.437073,562.185364 730.006531,562.610229 
	C711.981934,580.396240 693.923584,598.148682 676.028992,616.064758 
	C674.732483,617.362793 674.061523,619.855957 674.059448,621.794495 
	C673.974976,700.618896 673.999268,779.443298 674.024841,858.267761 
	C674.025330,859.855652 674.204529,861.443481 674.327698,863.484863 
	C676.681213,863.484863 678.661865,863.484802 680.642517,863.484924 
	C719.970276,863.487061 759.298218,863.528809 798.625366,863.376709 
	C800.626282,863.368958 803.111816,862.178528 804.546143,860.724426 
	C835.201660,829.647217 865.769531,798.483093 896.213684,767.198914 
	C897.826904,765.541199 899.027222,762.676453 899.029907,760.371948 
	C899.167480,642.718506 899.153809,525.064880 899.156372,407.411285 
	C899.156372,405.947632 899.156372,404.483978 899.156372,402.902771 
	C897.921204,402.795319 897.105530,402.661987 896.289795,402.662262 
	C845.962219,402.678070 795.634583,402.673248 745.307556,402.846375 
	C743.298096,402.853271 740.844482,404.100800 739.365540,405.552460 
	C732.589844,412.202942 726.110718,419.154633 719.483398,425.957611 
	C683.442993,462.953217 647.386292,499.932922 611.343933,536.926636 
	C598.011597,550.610840 584.703064,564.318237 571.415405,577.982422 
	C500.323059,508.071442 429.483185,438.408722 358.643311,368.746002 
	C358.261841,369.055176 357.880371,369.364380 357.498901,369.673584 
	C357.498901,533.695007 357.498901,697.716431 357.498901,861.964111 
	C376.849213,861.964111 395.925476,861.964111 415.636902,861.964111 
	C415.636902,742.888855 415.636902,624.080933 415.636902,504.344086 
	C467.950745,556.141602 519.479004,607.161255 571.159424,658.331604 
	C582.691467,646.756104 593.673218,635.825378 604.553162,624.794312 
	C635.793030,593.120483 666.991577,561.406006 698.701416,529.207397 
z"/>
<path fill="#FCFCFC" opacity="1.000000" stroke="none" 
	d="
M698.453857,529.457397 
	C666.991577,561.406006 635.793030,593.120483 604.553162,624.794312 
	C593.673218,635.825378 582.691467,646.756104 571.159424,658.331604 
	C519.479004,607.161255 467.950745,556.141602 415.636902,504.344086 
	C415.636902,624.080933 415.636902,742.888855 415.636902,861.964111 
	C395.925476,861.964111 376.849213,861.964111 357.498901,861.964111 
	C357.498901,697.716431 357.498901,533.695007 357.498901,369.673584 
	C357.880371,369.364380 358.261841,369.055176 358.643311,368.746002 
	C429.483185,438.408722 500.323059,508.071442 571.415405,577.982422 
	C584.703064,564.318237 598.011597,550.610840 611.343933,536.926636 
	C647.386292,499.932922 683.442993,462.953217 719.483398,425.957611 
	C726.110718,419.154633 732.589844,412.202942 739.365540,405.552460 
	C740.844482,404.100800 743.298096,402.853271 745.307556,402.846375 
	C795.634583,402.673248 845.962219,402.678070 896.289795,402.662262 
	C897.105530,402.661987 897.921204,402.795319 899.156372,402.902771 
	C899.156372,404.483978 899.156372,405.947632 899.156372,407.411285 
	C899.153809,525.064880 899.167480,642.718506 899.029907,760.371948 
	C899.027222,762.676453 897.826904,765.541199 896.213684,767.198914 
	C865.769531,798.483093 835.201660,829.647217 804.546143,860.724426 
	C803.111816,862.178528 800.626282,863.368958 798.625366,863.376709 
	C759.298218,863.528809 719.970276,863.487061 680.642517,863.484924 
	C678.661865,863.484802 676.681213,863.484863 674.327698,863.484863 
	C674.204529,861.443481 674.025330,859.855652 674.024841,858.267761 
	C673.999268,779.443298 673.974976,700.618896 674.059448,621.794495 
	C674.061523,619.855957 674.732483,617.362793 676.028992,616.064758 
	C693.923584,598.148682 711.981934,580.396240 730.006531,562.610229 
	C730.437073,562.185364 730.941223,561.835083 732.150024,560.843994 
	C732.150024,643.059509 732.150024,724.411316 732.150024,806.222168 
	C744.957764,806.222168 757.269775,805.732361 769.517822,806.405884 
	C776.866516,806.809998 781.723083,804.406677 786.695007,799.125732 
	C803.825745,780.930298 821.549988,763.294617 838.896545,745.299622 
	C840.414551,743.724915 841.630371,741.083252 841.633423,738.935242 
	C841.762207,648.778992 841.736572,558.622559 841.730164,468.466125 
	C841.729919,465.661926 841.730103,462.857758 841.730103,459.780823 
	C839.978210,459.635345 838.694092,459.437256 837.409668,459.435669 
	C815.245728,459.408630 793.081238,459.334015 770.918701,459.508789 
	C768.708313,459.526215 765.908020,460.498718 764.396790,462.029968 
	C742.396667,484.322083 720.569763,506.785156 698.453857,529.457397 
z"/>
</svg>